<svg width="227" height="38" viewBox="0 0 227 38" fill="none" xmlns="http://www.w3.org/2000/svg">
<path d="M56.8666 14.9954C57.382 9.55771 53.8347 4.86856 47.0493 2.08476C47.6928 2.63805 48.2762 3.26024 48.7896 3.94062C49.2563 4.5734 49.651 5.25829 49.966 5.98208C52.9979 8.02972 55.7266 11.2651 54.6169 16.0656C53.0888 22.6663 43.9446 25.5738 36.1101 24.9676C32.9933 24.7263 30.4465 24.417 28.1968 24.151C25.2965 23.7401 22.3744 23.5087 19.4467 23.4582C18.4947 23.4582 17.5063 23.4891 16.4633 23.5633C10.5571 23.984 6.24574 23.155 3.99606 21.1507C3.45381 20.6733 3.01278 20.0879 2.69998 19.4306C2.38718 18.7732 2.20919 18.0576 2.17691 17.3276C1.95862 14.0118 3.71713 11.5002 7.41 9.86702C9.09841 9.16562 10.8304 8.57872 12.5946 8.11014C14.6922 7.56983 16.7395 6.84327 18.713 5.93877C21.3492 4.61836 24.113 3.58173 26.9598 2.84566C28.0341 1.6917 29.2906 0.729794 30.6769 0C26.206 0.625679 21.8644 1.98788 17.8216 4.03342C15.9556 4.88697 14.0199 5.57214 12.0367 6.08106C10.179 6.57465 8.35574 7.19466 6.57926 7.93692C1.05511 10.3867 3.61432e-08 14.2716 0.109149 17.2039L0 16.9936C0 16.9936 0.509362 22.5612 2.59532 26.112C3.93543 28.4009 7.44638 31.6487 9.12606 32.787C14.4926 36.4368 31.8533 40.8291 44.4721 34.5191C54.0833 29.7062 57 17.6122 57 14.2345C56.9722 14.4909 56.9276 14.7451 56.8666 14.9954Z" fill="#46A857"/>
<path d="M25.3369 8.69873C24.8904 9.70478 22.9237 12.772 25.6144 14.9988C26.9477 16.1153 32.2084 17.4035 37.4089 17.4035C42.6093 17.4035 47.6952 16.1092 48.8113 12.1524C50.9228 4.64997 43.0558 3.88764e-05 37.433 3.88764e-05C37.0864 -0.000964811 36.74 0.0174667 36.3953 0.0552493C30.7726 0.6871 27.376 4.07946 25.3369 8.69873Z" fill="#46A857"/>
<path d="M71.8856 23V9.76H77.8456C79.259 9.76 80.3723 10.1467 81.1856 10.92C81.999 11.68 82.4056 12.7133 82.4056 14.02C82.4056 15.3267 81.999 16.3667 81.1856 17.14C80.3723 17.9 79.259 18.28 77.8456 18.28H73.3856V23H71.8856ZM73.3856 16.88H77.7456C78.7856 16.88 79.5723 16.6267 80.1056 16.12C80.639 15.6133 80.9056 14.9133 80.9056 14.02C80.9056 13.14 80.639 12.4467 80.1056 11.94C79.5723 11.4333 78.7856 11.18 77.7456 11.18H73.3856V16.88ZM84.1242 23V13H85.6242V15.46C85.6776 15.2867 85.7776 15.06 85.9242 14.78C86.0842 14.4867 86.3109 14.1933 86.6042 13.9C86.8976 13.6067 87.2642 13.36 87.7042 13.16C88.1576 12.9467 88.6909 12.84 89.3042 12.84H89.4042V14.34H89.2242C88.4776 14.34 87.8309 14.5467 87.2842 14.96C86.7509 15.36 86.3376 15.8867 86.0442 16.54C85.7642 17.18 85.6242 17.8667 85.6242 18.6V23H84.1242ZM95.1048 23.16C94.0915 23.16 93.2115 22.9333 92.4648 22.48C91.7182 22.0133 91.1448 21.3867 90.7448 20.6C90.3448 19.8133 90.1448 18.9467 90.1448 18C90.1448 17.04 90.3448 16.1733 90.7448 15.4C91.1448 14.6133 91.7182 13.9933 92.4648 13.54C93.2115 13.0733 94.0915 12.84 95.1048 12.84C96.1315 12.84 97.0115 13.0733 97.7448 13.54C98.4915 13.9933 99.0648 14.6133 99.4648 15.4C99.8648 16.1733 100.065 17.04 100.065 18C100.065 18.9467 99.8648 19.8133 99.4648 20.6C99.0648 21.3867 98.4915 22.0133 97.7448 22.48C97.0115 22.9333 96.1315 23.16 95.1048 23.16ZM95.1048 21.8C95.8515 21.8 96.4782 21.6267 96.9848 21.28C97.5048 20.9333 97.8982 20.4733 98.1648 19.9C98.4315 19.3133 98.5648 18.68 98.5648 18C98.5648 17.3067 98.4315 16.6733 98.1648 16.1C97.8982 15.5267 97.5048 15.0667 96.9848 14.72C96.4782 14.3733 95.8515 14.2 95.1048 14.2C94.3715 14.2 93.7448 14.3733 93.2248 14.72C92.7048 15.0667 92.3115 15.5267 92.0448 16.1C91.7782 16.6733 91.6448 17.3067 91.6448 18C91.6448 18.68 91.7782 19.3133 92.0448 19.9C92.3115 20.4733 92.7048 20.9333 93.2248 21.28C93.7448 21.6267 94.3715 21.8 95.1048 21.8ZM101.994 11.32V9.36H103.614V11.32H101.994ZM102.054 26.96V13H103.554V26.96H102.054ZM110.595 23.16C109.582 23.16 108.695 22.9333 107.935 22.48C107.175 22.0133 106.582 21.3867 106.155 20.6C105.742 19.8133 105.535 18.9467 105.535 18C105.535 17.04 105.735 16.1733 106.135 15.4C106.535 14.6133 107.109 13.9933 107.855 13.54C108.602 13.0733 109.482 12.84 110.495 12.84C111.522 12.84 112.402 13.0733 113.135 13.54C113.882 13.9933 114.455 14.6133 114.855 15.4C115.255 16.1733 115.455 17.04 115.455 18V18.6H107.075C107.155 19.1867 107.342 19.7267 107.635 20.22C107.942 20.7 108.349 21.0867 108.855 21.38C109.362 21.66 109.949 21.8 110.615 21.8C111.322 21.8 111.915 21.6467 112.395 21.34C112.875 21.02 113.249 20.6133 113.515 20.12H115.155C114.809 21.0133 114.255 21.7467 113.495 22.32C112.749 22.88 111.782 23.16 110.595 23.16ZM107.095 17.2H113.895C113.762 16.3467 113.402 15.6333 112.815 15.06C112.229 14.4867 111.455 14.2 110.495 14.2C109.535 14.2 108.762 14.4867 108.175 15.06C107.602 15.6333 107.242 16.3467 107.095 17.2ZM118.368 23V14.32H116.328V13H118.368V9.42H119.868V13H122.168V14.32H119.868V23H118.368ZM127.956 23.16C126.943 23.16 126.063 22.9333 125.316 22.48C124.57 22.0133 123.996 21.3867 123.596 20.6C123.196 19.8133 122.996 18.9467 122.996 18C122.996 17.04 123.196 16.1733 123.596 15.4C123.996 14.6133 124.57 13.9933 125.316 13.54C126.063 13.0733 126.943 12.84 127.956 12.84C128.983 12.84 129.863 13.0733 130.596 13.54C131.343 13.9933 131.916 14.6133 132.316 15.4C132.716 16.1733 132.916 17.04 132.916 18C132.916 18.9467 132.716 19.8133 132.316 20.6C131.916 21.3867 131.343 22.0133 130.596 22.48C129.863 22.9333 128.983 23.16 127.956 23.16ZM127.956 21.8C128.703 21.8 129.33 21.6267 129.836 21.28C130.356 20.9333 130.75 20.4733 131.016 19.9C131.283 19.3133 131.416 18.68 131.416 18C131.416 17.3067 131.283 16.6733 131.016 16.1C130.75 15.5267 130.356 15.0667 129.836 14.72C129.33 14.3733 128.703 14.2 127.956 14.2C127.223 14.2 126.596 14.3733 126.076 14.72C125.556 15.0667 125.163 15.5267 124.896 16.1C124.63 16.6733 124.496 17.3067 124.496 18C124.496 18.68 124.63 19.3133 124.896 19.9C125.163 20.4733 125.556 20.9333 126.076 21.28C126.596 21.6267 127.223 21.8 127.956 21.8ZM138.529 23L144.149 9.76H146.029L151.649 23H149.989L148.369 19.16H141.809L140.189 23H138.529ZM142.389 17.78H147.789L145.089 11.32L142.389 17.78ZM158.091 23.16C157.264 23.16 156.551 23 155.951 22.68C155.364 22.36 154.884 21.9333 154.511 21.4V23H153.011V9H154.511V14.62C154.884 14.0733 155.364 13.64 155.951 13.32C156.551 13 157.264 12.84 158.091 12.84C159.064 12.84 159.911 13.0733 160.631 13.54C161.364 13.9933 161.931 14.6133 162.331 15.4C162.731 16.1733 162.931 17.04 162.931 18C162.931 18.9467 162.731 19.8133 162.331 20.6C161.931 21.3867 161.364 22.0133 160.631 22.48C159.911 22.9333 159.064 23.16 158.091 23.16ZM157.891 21.8C158.638 21.8 159.271 21.6267 159.791 21.28C160.324 20.9333 160.731 20.4733 161.011 19.9C161.291 19.3133 161.431 18.68 161.431 18C161.431 17.3067 161.291 16.6733 161.011 16.1C160.731 15.5267 160.324 15.0667 159.791 14.72C159.271 14.3733 158.638 14.2 157.891 14.2C157.158 14.2 156.531 14.3733 156.011 14.72C155.491 15.0667 155.098 15.5267 154.831 16.1C154.564 16.6733 154.431 17.3067 154.431 18C154.431 18.68 154.564 19.3133 154.831 19.9C155.098 20.4733 155.491 20.9333 156.011 21.28C156.531 21.6267 157.158 21.8 157.891 21.8ZM169.125 23.16C168.152 23.16 167.299 22.9333 166.565 22.48C165.845 22.0133 165.285 21.3867 164.885 20.6C164.485 19.8133 164.285 18.9467 164.285 18C164.285 17.04 164.485 16.1733 164.885 15.4C165.285 14.6133 165.845 13.9933 166.565 13.54C167.299 13.0733 168.152 12.84 169.125 12.84C169.952 12.84 170.659 13 171.245 13.32C171.845 13.64 172.332 14.0733 172.705 14.62V13H174.205V23H172.705V21.4C172.332 21.9333 171.845 22.36 171.245 22.68C170.659 23 169.952 23.16 169.125 23.16ZM169.325 21.8C170.072 21.8 170.699 21.6267 171.205 21.28C171.725 20.9333 172.119 20.4733 172.385 19.9C172.652 19.3133 172.785 18.68 172.785 18C172.785 17.3067 172.652 16.6733 172.385 16.1C172.119 15.5267 171.725 15.0667 171.205 14.72C170.699 14.3733 170.072 14.2 169.325 14.2C168.592 14.2 167.959 14.3733 167.425 14.72C166.892 15.0667 166.485 15.5267 166.205 16.1C165.925 16.6733 165.785 17.3067 165.785 18C165.785 18.68 165.925 19.3133 166.205 19.9C166.485 20.4733 166.892 20.9333 167.425 21.28C167.959 21.6267 168.592 21.8 169.325 21.8ZM181.1 23.16C180.1 23.16 179.233 22.9333 178.5 22.48C177.767 22.0133 177.193 21.3867 176.78 20.6C176.38 19.8133 176.18 18.9467 176.18 18C176.18 17.04 176.38 16.1733 176.78 15.4C177.193 14.6133 177.767 13.9933 178.5 13.54C179.233 13.0733 180.1 12.84 181.1 12.84C182.287 12.84 183.293 13.1467 184.12 13.76C184.96 14.3733 185.527 15.1667 185.82 16.14H184.2C183.973 15.5667 183.607 15.1 183.1 14.74C182.607 14.38 182.007 14.2 181.3 14.2C180.567 14.2 179.927 14.3733 179.38 14.72C178.833 15.0667 178.413 15.5267 178.12 16.1C177.827 16.6733 177.68 17.3067 177.68 18C177.68 18.68 177.827 19.3133 178.12 19.9C178.413 20.4733 178.833 20.9333 179.38 21.28C179.927 21.6267 180.567 21.8 181.3 21.8C182.007 21.8 182.607 21.62 183.1 21.26C183.607 20.9 183.973 20.4333 184.2 19.86H185.82C185.527 20.8333 184.96 21.6267 184.12 22.24C183.293 22.8533 182.287 23.16 181.1 23.16ZM191.899 23.16C190.926 23.16 190.072 22.9333 189.339 22.48C188.619 22.0133 188.059 21.3867 187.659 20.6C187.259 19.8133 187.059 18.9467 187.059 18C187.059 17.04 187.259 16.1733 187.659 15.4C188.059 14.6133 188.619 13.9933 189.339 13.54C190.072 13.0733 190.926 12.84 191.899 12.84C192.726 12.84 193.432 13 194.019 13.32C194.619 13.64 195.106 14.0733 195.479 14.62V13H196.979V23H195.479V21.4C195.106 21.9333 194.619 22.36 194.019 22.68C193.432 23 192.726 23.16 191.899 23.16ZM192.099 21.8C192.846 21.8 193.472 21.6267 193.979 21.28C194.499 20.9333 194.892 20.4733 195.159 19.9C195.426 19.3133 195.559 18.68 195.559 18C195.559 17.3067 195.426 16.6733 195.159 16.1C194.892 15.5267 194.499 15.0667 193.979 14.72C193.472 14.3733 192.846 14.2 192.099 14.2C191.366 14.2 190.732 14.3733 190.199 14.72C189.666 15.0667 189.259 15.5267 188.979 16.1C188.699 16.6733 188.559 17.3067 188.559 18C188.559 18.68 188.699 19.3133 188.979 19.9C189.259 20.4733 189.666 20.9333 190.199 21.28C190.732 21.6267 191.366 21.8 192.099 21.8ZM200.653 23V14.32H198.613V13H200.653V9.42H202.153V13H204.453V14.32H202.153V23H200.653ZM210.342 23.16C209.328 23.16 208.442 22.9333 207.682 22.48C206.922 22.0133 206.328 21.3867 205.902 20.6C205.488 19.8133 205.282 18.9467 205.282 18C205.282 17.04 205.482 16.1733 205.882 15.4C206.282 14.6133 206.855 13.9933 207.602 13.54C208.348 13.0733 209.228 12.84 210.242 12.84C211.268 12.84 212.148 13.0733 212.882 13.54C213.628 13.9933 214.202 14.6133 214.602 15.4C215.002 16.1733 215.202 17.04 215.202 18V18.6H206.822C206.902 19.1867 207.088 19.7267 207.382 20.22C207.688 20.7 208.095 21.0867 208.602 21.38C209.108 21.66 209.695 21.8 210.362 21.8C211.068 21.8 211.662 21.6467 212.142 21.34C212.622 21.02 212.995 20.6133 213.262 20.12H214.902C214.555 21.0133 214.002 21.7467 213.242 22.32C212.495 22.88 211.528 23.16 210.342 23.16ZM206.842 17.2H213.642C213.508 16.3467 213.148 15.6333 212.562 15.06C211.975 14.4867 211.202 14.2 210.242 14.2C209.282 14.2 208.508 14.4867 207.922 15.06C207.348 15.6333 206.988 16.3467 206.842 17.2Z" fill="#35495E"/>
</svg>
