<svg width="85" height="56" viewBox="0 0 85 56" fill="none" xmlns="http://www.w3.org/2000/svg">
<path d="M84.453 22.2698C85.2185 14.1942 79.9503 7.23033 69.8732 3.09609C70.829 3.9178 71.6954 4.84181 72.4578 5.85225C73.1509 6.79199 73.7371 7.80912 74.2049 8.88403C78.7076 11.925 82.76 16.7299 81.112 23.8592C78.8427 33.6619 65.2625 37.9799 53.6274 37.0796C48.9986 36.7213 45.2163 36.2619 41.8753 35.8669C37.568 35.2566 33.2285 34.913 28.8805 34.8379C27.4666 34.8379 25.9987 34.8838 24.4498 34.9941C15.6785 35.6188 9.27561 34.3877 5.93459 31.4111C5.12928 30.702 4.47431 29.8328 4.00976 28.8565C3.54522 27.8802 3.28089 26.8175 3.23295 25.7334C2.90876 20.809 5.52034 17.079 11.0047 14.6536C13.5121 13.6119 16.0843 12.7403 18.7043 12.0444C21.8195 11.242 24.86 10.163 27.7908 8.81972C31.7058 6.85877 35.8104 5.31925 40.0382 4.22611C41.6337 2.51236 43.4997 1.08382 45.5585 0C38.9188 0.9292 32.471 2.95221 26.467 5.99006C23.6958 7.25768 20.8211 8.27523 17.8758 9.03103C15.1169 9.76406 12.4092 10.6848 9.77091 11.7872C1.56695 15.4253 5.36766e-08 21.1949 0.162098 25.5496L0 25.2373C0 25.2373 0.756457 33.5057 3.85433 38.7792C5.84453 42.1785 11.0587 47.0018 13.5532 48.6922C21.523 54.1127 47.3056 60.6356 66.0459 51.2646C80.3195 44.117 84.6512 26.156 84.6512 21.1398C84.6099 21.5205 84.5437 21.898 84.453 22.2698Z" fill="#46A857"/>
<path d="M37.6279 12.9185C36.9649 14.4126 34.0441 18.9678 38.0401 22.2749C40.0202 23.933 47.833 25.8462 55.5562 25.8462C63.2794 25.8462 70.8324 23.9239 72.49 18.0477C75.6259 6.90571 63.9425 5.77356e-05 55.5921 5.77356e-05C55.0773 -0.00143285 54.5628 0.0259399 54.051 0.0820511C45.7006 1.02042 40.6563 6.05845 37.6279 12.9185Z" fill="#46A857"/>
</svg>
